<mxfile host="65bd71144e" pages="3">
    <diagram name="install" id="XpxoqIU8xEo01gf_lGSf">
        <mxGraphModel dx="971" dy="1946" grid="1" gridSize="10" guides="1" tooltips="1" connect="1" arrows="1" fold="1" page="0" pageScale="1" pageWidth="850" pageHeight="1100" background="#000000" math="0" shadow="0">
            <root>
                <mxCell id="0"/>
                <mxCell id="1" parent="0"/>
                <mxCell id="SNtO_ZQFUpDPNA0b8nCn-150" value="&lt;font style=&quot;font-size: 24px;&quot;&gt;install-script&lt;/font&gt;" style="swimlane;whiteSpace=wrap;html=1;startSize=40;fontSize=24;" parent="1" vertex="1">
                    <mxGeometry x="480" y="-520" width="680" height="780" as="geometry"/>
                </mxCell>
                <mxCell id="o4RlAcTmmBD7hkKKcL90-6" value="install.sh" style="shape=document;whiteSpace=wrap;html=1;boundedLbl=1;" parent="SNtO_ZQFUpDPNA0b8nCn-150" vertex="1">
                    <mxGeometry x="200" y="180" width="120" height="60" as="geometry"/>
                </mxCell>
                <mxCell id="SNtO_ZQFUpDPNA0b8nCn-295" value="yes" style="edgeStyle=orthogonalEdgeStyle;rounded=0;orthogonalLoop=1;jettySize=auto;html=1;fontSize=12;" parent="SNtO_ZQFUpDPNA0b8nCn-150" source="o4RlAcTmmBD7hkKKcL90-14" target="SNtO_ZQFUpDPNA0b8nCn-284" edge="1">
                    <mxGeometry x="-0.5" relative="1" as="geometry">
                        <Array as="points">
                            <mxPoint x="260" y="350"/>
                            <mxPoint x="260" y="350"/>
                        </Array>
                        <mxPoint as="offset"/>
                    </mxGeometry>
                </mxCell>
                <mxCell id="o4RlAcTmmBD7hkKKcL90-14" value="Check if git is installed" style="rounded=1;whiteSpace=wrap;html=1;" parent="SNtO_ZQFUpDPNA0b8nCn-150" vertex="1">
                    <mxGeometry x="200" y="280" width="120" height="60" as="geometry"/>
                </mxCell>
                <mxCell id="SNtO_ZQFUpDPNA0b8nCn-306" style="edgeStyle=orthogonalEdgeStyle;rounded=0;orthogonalLoop=1;jettySize=auto;html=1;fontSize=12;" parent="SNtO_ZQFUpDPNA0b8nCn-150" source="o4RlAcTmmBD7hkKKcL90-21" target="SNtO_ZQFUpDPNA0b8nCn-305" edge="1">
                    <mxGeometry relative="1" as="geometry"/>
                </mxCell>
                <mxCell id="o4RlAcTmmBD7hkKKcL90-21" value="Add alias calling entry script to global git config" style="rounded=1;whiteSpace=wrap;html=1;" parent="SNtO_ZQFUpDPNA0b8nCn-150" vertex="1">
                    <mxGeometry x="200" y="680" width="120" height="60" as="geometry"/>
                </mxCell>
                <mxCell id="SNtO_ZQFUpDPNA0b8nCn-178" style="edgeStyle=orthogonalEdgeStyle;rounded=0;orthogonalLoop=1;jettySize=auto;html=1;" parent="SNtO_ZQFUpDPNA0b8nCn-150" source="SNtO_ZQFUpDPNA0b8nCn-85" target="o4RlAcTmmBD7hkKKcL90-6" edge="1">
                    <mxGeometry relative="1" as="geometry"/>
                </mxCell>
                <mxCell id="SNtO_ZQFUpDPNA0b8nCn-85" value="git-backup-[version].tar.gz" style="shape=document;whiteSpace=wrap;html=1;boundedLbl=1;" parent="SNtO_ZQFUpDPNA0b8nCn-150" vertex="1">
                    <mxGeometry x="40" y="180" width="120" height="60" as="geometry"/>
                </mxCell>
                <mxCell id="SNtO_ZQFUpDPNA0b8nCn-97" style="edgeStyle=orthogonalEdgeStyle;rounded=0;orthogonalLoop=1;jettySize=auto;html=1;" parent="SNtO_ZQFUpDPNA0b8nCn-150" source="o4RlAcTmmBD7hkKKcL90-6" target="o4RlAcTmmBD7hkKKcL90-14" edge="1">
                    <mxGeometry relative="1" as="geometry">
                        <mxPoint x="260" y="340" as="sourcePoint"/>
                        <mxPoint x="540" y="380" as="targetPoint"/>
                    </mxGeometry>
                </mxCell>
                <mxCell id="SNtO_ZQFUpDPNA0b8nCn-107" value="exit" style="rounded=1;whiteSpace=wrap;html=1;" parent="SNtO_ZQFUpDPNA0b8nCn-150" vertex="1">
                    <mxGeometry x="360" y="280" width="120" height="60" as="geometry"/>
                </mxCell>
                <mxCell id="SNtO_ZQFUpDPNA0b8nCn-108" value="" style="edgeStyle=orthogonalEdgeStyle;rounded=0;orthogonalLoop=1;jettySize=auto;html=1;" parent="SNtO_ZQFUpDPNA0b8nCn-150" source="o4RlAcTmmBD7hkKKcL90-14" target="SNtO_ZQFUpDPNA0b8nCn-107" edge="1">
                    <mxGeometry relative="1" as="geometry"/>
                </mxCell>
                <mxCell id="SNtO_ZQFUpDPNA0b8nCn-109" value="no" style="edgeStyle=orthogonalEdgeStyle;rounded=0;orthogonalLoop=1;jettySize=auto;html=1;" parent="SNtO_ZQFUpDPNA0b8nCn-150" source="o4RlAcTmmBD7hkKKcL90-14" target="SNtO_ZQFUpDPNA0b8nCn-107" edge="1">
                    <mxGeometry relative="1" as="geometry"/>
                </mxCell>
                <mxCell id="SNtO_ZQFUpDPNA0b8nCn-293" style="edgeStyle=orthogonalEdgeStyle;rounded=0;orthogonalLoop=1;jettySize=auto;html=1;fontSize=12;" parent="SNtO_ZQFUpDPNA0b8nCn-150" source="SNtO_ZQFUpDPNA0b8nCn-283" target="SNtO_ZQFUpDPNA0b8nCn-288" edge="1">
                    <mxGeometry relative="1" as="geometry"/>
                </mxCell>
                <mxCell id="SNtO_ZQFUpDPNA0b8nCn-283" value="Check if script directory already exists" style="rounded=1;whiteSpace=wrap;html=1;" parent="SNtO_ZQFUpDPNA0b8nCn-150" vertex="1">
                    <mxGeometry x="360" y="380" width="120" height="60" as="geometry"/>
                </mxCell>
                <mxCell id="SNtO_ZQFUpDPNA0b8nCn-292" style="edgeStyle=orthogonalEdgeStyle;rounded=0;orthogonalLoop=1;jettySize=auto;html=1;fontSize=12;" parent="SNtO_ZQFUpDPNA0b8nCn-150" source="SNtO_ZQFUpDPNA0b8nCn-284" target="SNtO_ZQFUpDPNA0b8nCn-283" edge="1">
                    <mxGeometry relative="1" as="geometry"/>
                </mxCell>
                <mxCell id="SNtO_ZQFUpDPNA0b8nCn-299" style="edgeStyle=orthogonalEdgeStyle;rounded=0;orthogonalLoop=1;jettySize=auto;html=1;fontSize=12;" parent="SNtO_ZQFUpDPNA0b8nCn-150" source="SNtO_ZQFUpDPNA0b8nCn-284" target="SNtO_ZQFUpDPNA0b8nCn-298" edge="1">
                    <mxGeometry relative="1" as="geometry"/>
                </mxCell>
                <mxCell id="SNtO_ZQFUpDPNA0b8nCn-284" value="Install scripts to $HOME/lib" style="rounded=1;whiteSpace=wrap;html=1;" parent="SNtO_ZQFUpDPNA0b8nCn-150" vertex="1">
                    <mxGeometry x="200" y="380" width="120" height="60" as="geometry"/>
                </mxCell>
                <mxCell id="SNtO_ZQFUpDPNA0b8nCn-311" style="edgeStyle=orthogonalEdgeStyle;rounded=0;orthogonalLoop=1;jettySize=auto;html=1;fontSize=12;" parent="SNtO_ZQFUpDPNA0b8nCn-150" source="SNtO_ZQFUpDPNA0b8nCn-288" target="SNtO_ZQFUpDPNA0b8nCn-284" edge="1">
                    <mxGeometry relative="1" as="geometry">
                        <Array as="points">
                            <mxPoint x="580" y="360"/>
                            <mxPoint x="260" y="360"/>
                        </Array>
                    </mxGeometry>
                </mxCell>
                <mxCell id="SNtO_ZQFUpDPNA0b8nCn-288" value="Ask user input new directory name" style="rounded=1;whiteSpace=wrap;html=1;" parent="SNtO_ZQFUpDPNA0b8nCn-150" vertex="1">
                    <mxGeometry x="520" y="380" width="120" height="60" as="geometry"/>
                </mxCell>
                <mxCell id="SNtO_ZQFUpDPNA0b8nCn-300" style="edgeStyle=orthogonalEdgeStyle;rounded=0;orthogonalLoop=1;jettySize=auto;html=1;fontSize=12;startArrow=none;" parent="SNtO_ZQFUpDPNA0b8nCn-150" source="SNtO_ZQFUpDPNA0b8nCn-315" target="o4RlAcTmmBD7hkKKcL90-21" edge="1">
                    <mxGeometry relative="1" as="geometry"/>
                </mxCell>
                <mxCell id="SNtO_ZQFUpDPNA0b8nCn-313" style="edgeStyle=orthogonalEdgeStyle;rounded=0;orthogonalLoop=1;jettySize=auto;html=1;fontSize=12;" parent="SNtO_ZQFUpDPNA0b8nCn-150" source="SNtO_ZQFUpDPNA0b8nCn-298" target="SNtO_ZQFUpDPNA0b8nCn-301" edge="1">
                    <mxGeometry relative="1" as="geometry">
                        <mxPoint x="360" y="510" as="targetPoint"/>
                    </mxGeometry>
                </mxCell>
                <mxCell id="SNtO_ZQFUpDPNA0b8nCn-318" style="edgeStyle=orthogonalEdgeStyle;rounded=0;orthogonalLoop=1;jettySize=auto;html=1;fontSize=12;" parent="SNtO_ZQFUpDPNA0b8nCn-150" source="SNtO_ZQFUpDPNA0b8nCn-298" target="SNtO_ZQFUpDPNA0b8nCn-315" edge="1">
                    <mxGeometry relative="1" as="geometry"/>
                </mxCell>
                <mxCell id="SNtO_ZQFUpDPNA0b8nCn-298" value="Add symlink of entry script to $HOME/bin" style="rounded=1;whiteSpace=wrap;html=1;" parent="SNtO_ZQFUpDPNA0b8nCn-150" vertex="1">
                    <mxGeometry x="200" y="480" width="120" height="60" as="geometry"/>
                </mxCell>
                <mxCell id="SNtO_ZQFUpDPNA0b8nCn-304" style="edgeStyle=orthogonalEdgeStyle;rounded=0;orthogonalLoop=1;jettySize=auto;html=1;fontSize=12;" parent="SNtO_ZQFUpDPNA0b8nCn-150" source="SNtO_ZQFUpDPNA0b8nCn-301" target="SNtO_ZQFUpDPNA0b8nCn-303" edge="1">
                    <mxGeometry relative="1" as="geometry"/>
                </mxCell>
                <mxCell id="SNtO_ZQFUpDPNA0b8nCn-301" value="Check if the file already exists" style="rounded=1;whiteSpace=wrap;html=1;" parent="SNtO_ZQFUpDPNA0b8nCn-150" vertex="1">
                    <mxGeometry x="360" y="480" width="120" height="60" as="geometry"/>
                </mxCell>
                <mxCell id="SNtO_ZQFUpDPNA0b8nCn-310" style="edgeStyle=orthogonalEdgeStyle;rounded=0;orthogonalLoop=1;jettySize=auto;html=1;fontSize=12;" parent="SNtO_ZQFUpDPNA0b8nCn-150" source="SNtO_ZQFUpDPNA0b8nCn-303" target="SNtO_ZQFUpDPNA0b8nCn-298" edge="1">
                    <mxGeometry relative="1" as="geometry">
                        <Array as="points">
                            <mxPoint x="580" y="460"/>
                            <mxPoint x="260" y="460"/>
                        </Array>
                    </mxGeometry>
                </mxCell>
                <mxCell id="SNtO_ZQFUpDPNA0b8nCn-303" value="Ask user input for new file name" style="rounded=1;whiteSpace=wrap;html=1;" parent="SNtO_ZQFUpDPNA0b8nCn-150" vertex="1">
                    <mxGeometry x="520" y="480" width="120" height="60" as="geometry"/>
                </mxCell>
                <mxCell id="SNtO_ZQFUpDPNA0b8nCn-308" style="edgeStyle=orthogonalEdgeStyle;rounded=0;orthogonalLoop=1;jettySize=auto;html=1;fontSize=12;" parent="SNtO_ZQFUpDPNA0b8nCn-150" source="SNtO_ZQFUpDPNA0b8nCn-305" target="SNtO_ZQFUpDPNA0b8nCn-307" edge="1">
                    <mxGeometry relative="1" as="geometry"/>
                </mxCell>
                <mxCell id="SNtO_ZQFUpDPNA0b8nCn-305" value="Check if the alias already exists" style="rounded=1;whiteSpace=wrap;html=1;" parent="SNtO_ZQFUpDPNA0b8nCn-150" vertex="1">
                    <mxGeometry x="360" y="680" width="120" height="60" as="geometry"/>
                </mxCell>
                <mxCell id="SNtO_ZQFUpDPNA0b8nCn-309" style="edgeStyle=orthogonalEdgeStyle;rounded=0;orthogonalLoop=1;jettySize=auto;html=1;fontSize=12;" parent="SNtO_ZQFUpDPNA0b8nCn-150" source="SNtO_ZQFUpDPNA0b8nCn-307" target="o4RlAcTmmBD7hkKKcL90-21" edge="1">
                    <mxGeometry relative="1" as="geometry">
                        <Array as="points">
                            <mxPoint x="580" y="660"/>
                            <mxPoint x="260" y="660"/>
                        </Array>
                    </mxGeometry>
                </mxCell>
                <mxCell id="SNtO_ZQFUpDPNA0b8nCn-307" value="Ask user input for new alias name" style="rounded=1;whiteSpace=wrap;html=1;" parent="SNtO_ZQFUpDPNA0b8nCn-150" vertex="1">
                    <mxGeometry x="520" y="680" width="120" height="60" as="geometry"/>
                </mxCell>
                <mxCell id="SNtO_ZQFUpDPNA0b8nCn-315" value="Add $HOME/bin to $PATH" style="rounded=1;whiteSpace=wrap;html=1;" parent="SNtO_ZQFUpDPNA0b8nCn-150" vertex="1">
                    <mxGeometry x="200" y="580" width="120" height="60" as="geometry"/>
                </mxCell>
                <mxCell id="NM2rso9zaqws0As0t3mV-2" style="edgeStyle=none;html=1;" parent="SNtO_ZQFUpDPNA0b8nCn-150" source="NM2rso9zaqws0As0t3mV-1" target="o4RlAcTmmBD7hkKKcL90-6" edge="1">
                    <mxGeometry relative="1" as="geometry"/>
                </mxCell>
                <mxCell id="NM2rso9zaqws0As0t3mV-1" value="execute" style="rounded=1;whiteSpace=wrap;html=1;" parent="SNtO_ZQFUpDPNA0b8nCn-150" vertex="1">
                    <mxGeometry x="200" y="80" width="120" height="60" as="geometry"/>
                </mxCell>
            </root>
        </mxGraphModel>
    </diagram>
</mxfile>